<?xml version="1.0" encoding="UTF-8" standalone="no"?>
<!-- Created with Inkscape (http://www.inkscape.org/) -->

<svg
   width="383.99997"
   height="512"
   viewBox="0 0 101.59999 135.46667"
   version="1.1"
   id="svg1"
   xml:space="preserve"
   inkscape:version="1.4 (86a8ad7, 2024-10-11)"
   sodipodi:docname="card.svg"
   inkscape:export-filename="..\..\Web\pasttime\public\games\cards\diamond\ten.svg"
   inkscape:export-xdpi="96"
   inkscape:export-ydpi="96"
   xmlns:inkscape="http://www.inkscape.org/namespaces/inkscape"
   xmlns:sodipodi="http://sodipodi.sourceforge.net/DTD/sodipodi-0.dtd"
   xmlns="http://www.w3.org/2000/svg"
   xmlns:svg="http://www.w3.org/2000/svg"><sodipodi:namedview
     id="namedview1"
     pagecolor="#505050"
     bordercolor="#ffffff"
     borderopacity="1"
     inkscape:showpageshadow="0"
     inkscape:pageopacity="0"
     inkscape:pagecheckerboard="1"
     inkscape:deskcolor="#505050"
     inkscape:document-units="mm"
     showguides="true"
     inkscape:zoom="0.18378155"
     inkscape:cx="-1414.7231"
     inkscape:cy="4029.2402"
     inkscape:window-width="2560"
     inkscape:window-height="1369"
     inkscape:window-x="2552"
     inkscape:window-y="-8"
     inkscape:window-maximized="1"
     inkscape:current-layer="layer1"><inkscape:page
       x="0"
       y="0"
       width="101.59999"
       height="135.46667"
       id="page2"
       margin="0"
       bleed="0" /></sodipodi:namedview><defs
     id="defs1" /><g
     inkscape:label="Layer 1"
     inkscape:groupmode="layer"
     id="layer1"
     transform="translate(179.84869,-1333.5085)"><g
       id="g27-77-3-48-24-5"
       inkscape:label="card"
       transform="translate(-179.8487,1333.5085)"><rect
         style="display:inline;fill:#000000;stroke-width:16.0407"
         id="rect1-3-0-64-91-7"
         width="101.6"
         height="135.46666"
         x="7.6293946e-07"
         y="3.5603841e-06"
         ry="15.875"
         inkscape:label="border" /><rect
         style="display:inline;fill:#ececec;stroke-width:15.4554"
         id="rect1-8-3-7-689-57-3"
         width="97.366669"
         height="131.23334"
         x="2.1166656"
         y="2.1166646"
         ry="14.2875"
         inkscape:label="bg" /><g
         id="g17-5-7-83-33-2"
         inkscape:label="suite"><rect
           style="opacity:0;fill:#ffff00;stroke-width:21.0307"
           id="rect17-9-8-55-42-2"
           width="101.6"
           height="67.73333"
           x="7.6293946e-07"
           y="67.73333" /><path
           id="path21-0-7-20-2"
           style="fill:#000000;fill-opacity:1;stroke-width:11.5853"
           d="m 50.761976,67.73406 c -0.20095,-8.5e-4 -0.40205,0.0829 -0.73589,0.25061 -1.18022,0.59306 -4.18664,3.50993 -10.25317,9.94735 -7.35827,7.80819 -9.16507,9.99416 -10.54697,12.75913 -0.68424,1.36922 -0.76321,1.72429 -0.76321,3.45606 0,1.79039 0.069,2.07679 0.95108,3.94162 1.54763,3.27175 3.26338,4.95456 6.29349,6.17459 1.80162,0.72535 5.46843,0.77594 7.35767,0.10145 0.32462,-0.11596 0.69198,-0.26967 1.05962,-0.42971 1.36069,-0.38921 2.91744,-1.14334 3.67558,-1.80804 0.3384,-0.29668 0.56848,-0.4895 0.83342,-0.7164 l 0.60587,-0.36093 c 0.1504,0.3338 -0.0887,1.27285 -0.75735,3.00454 -1.30993,3.39202 -3.83587,6.27689 -6.08998,6.9557 -1.69403,0.51011 -1.91938,0.64908 -2.00227,1.23124 -0.0888,0.62476 0.29657,0.73059 3.01444,0.8281 v 0.002 c 3.75164,0.13452 14.69741,-0.0986 16.24304,-0.34594 2.20434,-0.35268 2.0402,-0.67973 -0.99984,-1.98784 -2.31117,-0.99444 -3.32128,-2.05578 -4.78137,-5.02371 -1.02039,-2.07417 -1.9037,-4.72449 -1.65968,-4.98012 0.0704,-0.0738 0.66592,0.28897 1.32293,0.80632 1.60138,1.26098 2.95552,2.06551 4.59024,2.7267 1.16013,0.46924 1.77095,0.54956 4.18787,0.54956 2.81718,0 2.83804,-0.004 4.59154,-0.90164 4.95046,-2.53424 7.60312,-8.83356 5.52573,-13.12076 -1.39937,-2.88802 -5.22534,-7.35912 -14.19202,-16.58365 -4.04924,-4.16566 -5.70176,-5.69247 -6.73489,-6.22021 -0.33385,-0.17078 -0.53493,-0.25585 -0.73588,-0.25675 z" /></g><g
         id="g17-9-8-3-58-1-0"
         transform="translate(8.0383299e-7,-48.683327)"
         inkscape:label="number"><rect
           style="opacity:0;fill:#aade87;stroke-width:18.9569"
           id="rect17-3-18-0-40-27-0"
           width="101.6"
           height="55.033333"
           x="-4.0893539e-08"
           y="48.683327" /><g
           id="g12-5-1-2-3-5-70-2"
           transform="translate(230.90312,-22.665607)"
           style="fill:#aa0000"><rect
             style="opacity:0;fill:#aa0000;stroke-width:13.9456"
             id="rect10-4-4-8-66-8-47-2-3"
             width="33.866665"
             height="33.866665"
             x="-197.03645"
             y="92.515602" /><text
             xml:space="preserve"
             style="font-style:normal;font-variant:normal;font-weight:normal;font-stretch:ultra-condensed;font-size:45.1556px;font-family:Playbill;-inkscape-font-specification:'Playbill Ultra-Condensed';text-align:start;writing-mode:lr-tb;direction:ltr;text-anchor:start;fill:#aa0000;stroke-width:13.2292"
             x="-180.40077"
             y="124.49712"
             id="text4-5-5-3-4-03-2-21-41-1"><tspan
               sodipodi:role="line"
               style="font-style:normal;font-variant:normal;font-weight:normal;font-stretch:normal;font-size:45.1556px;font-family:'Franklin Gothic Demi';-inkscape-font-specification:'Franklin Gothic Demi';text-align:center;text-anchor:middle;fill:#000000;stroke-width:13.2292"
               x="-180.40077"
               y="124.49712"
               id="tspan6-1-2-1-9-8-5-4-03-6">10</tspan></text></g></g></g></g></svg>
